<svg width="18" height="19" viewBox="0 0 18 19" fill="none" xmlns="http://www.w3.org/2000/svg">
<path d="M16.3541 8.03113H15.75V8H9V11H13.2386C12.6203 12.7464 10.9586 14 9 14C6.51487 14 4.5 11.9851 4.5 9.5C4.5 7.01487 6.51487 5 9 5C10.1471 5 11.1908 5.43275 11.9854 6.13962L14.1068 4.01825C12.7673 2.76987 10.9755 2 9 2C4.85812 2 1.5 5.35812 1.5 9.5C1.5 13.6419 4.85812 17 9 17C13.1419 17 16.5 13.6419 16.5 9.5C16.5 8.99713 16.4482 8.50625 16.3541 8.03113Z" fill="#FFC107"/>
<path d="M2.36475 6.00912L4.82887 7.81625C5.49562 6.1655 7.11037 5 9 5C10.1471 5 11.1907 5.43275 11.9854 6.13962L14.1067 4.01825C12.7672 2.76987 10.9755 2 9 2C6.11925 2 3.621 3.62637 2.36475 6.00912Z" fill="#FF3D00"/>
<path d="M8.99999 17C10.9372 17 12.6975 16.2586 14.0284 15.053L11.7071 13.0888C10.929 13.6809 9.97784 14.0011 8.99999 14C7.04924 14 5.39287 12.7561 4.76887 11.0203L2.32312 12.9046C3.56437 15.3335 6.08512 17 8.99999 17Z" fill="#4CAF50"/>
<path d="M16.3541 8.03113H15.75V8H9V11H13.2386C12.9428 11.8312 12.41 12.5574 11.706 13.0891L11.7071 13.0884L14.0284 15.0526C13.8641 15.2019 16.5 13.25 16.5 9.5C16.5 8.99713 16.4482 8.50625 16.3541 8.03113Z" fill="#1976D2"/>
</svg>
